HIERARCHY
ROOT bip01_pelvis
{
	OFFSET -0.141780 111.560104 -53.453648
	CHANNELS 6 Xposition Yposition Zposition Xrotation Yrotation Zrotation
	JOINT bip01_l_thigh
	{
		OFFSET -12.581326 0.000023 0.838757
		CHANNELS 3 Xrotation Yrotation Zrotation
		JOINT bip01_l_calf
		{
			OFFSET -5.405050 -43.060066 12.568863
			CHANNELS 3 Xrotation Yrotation Zrotation
			JOINT bip01_l_foot
			{
				OFFSET -6.378141 -25.639313 -28.000755
				CHANNELS 3 Xrotation Yrotation Zrotation
				JOINT bip01_l_toe0
				{
					OFFSET -1.312191 -43.345943 -5.410645
					CHANNELS 3 Xrotation Yrotation Zrotation
					End Site
					{
						OFFSET 0.668312 -0.011212 0.027710
					}
				}
			}
		}
	}
	JOINT bip01_r_thigh
	{
		OFFSET 12.581315 -0.000053 -0.838764
		CHANNELS 3 Xrotation Yrotation Zrotation
		JOINT bip01_r_calf
		{
			OFFSET 7.025425 -43.060097 11.740181
			CHANNELS 3 Xrotation Yrotation Zrotation
			JOINT bip01_r_foot
			{
				OFFSET 2.604660 -25.639347 -28.599602
				CHANNELS 3 Xrotation Yrotation Zrotation
				JOINT bip01_r_toe0
				{
					OFFSET 0.582125 -43.345810 -5.536972
					CHANNELS 3 Xrotation Yrotation Zrotation
					End Site
					{
						OFFSET 0.658720 0.011207 -0.116180
					}
				}
			}
		}
	}
	JOINT bip01_spine
	{
		OFFSET 1.130847 -10.257637 16.963192
		CHANNELS 3 Xrotation Yrotation Zrotation
		JOINT bip01_spine1
		{
			OFFSET 2.125925 -0.408882 31.891911
			CHANNELS 3 Xrotation Yrotation Zrotation
			JOINT bip01_spine2
			{
				OFFSET 3.104555 -1.436646 46.949230
				CHANNELS 3 Xrotation Yrotation Zrotation
				JOINT bip01_neck
				{
					OFFSET 1.831697 12.621635 29.209831
					CHANNELS 3 Xrotation Yrotation Zrotation
					JOINT bip01_head
					{
						OFFSET 0.933028 14.642593 15.308128
						CHANNELS 3 Xrotation Yrotation Zrotation
						JOINT bip01_ponytail1
						{
							OFFSET 12.881245 30.917107 3.869919
							CHANNELS 3 Xrotation Yrotation Zrotation
							End Site
							{
								OFFSET -0.556711 0.315430 0.195229
							}
						}
						JOINT bip01_ponytail2
						{
							OFFSET -12.308470 31.163292 5.588448
							CHANNELS 3 Xrotation Yrotation Zrotation
							End Site
							{
								OFFSET -0.577699 -0.315430 -0.119598
							}
						}
						JOINT bone01
						{
							OFFSET -0.035753 10.693596 0.910164
							CHANNELS 3 Xrotation Yrotation Zrotation
							End Site
							{
								OFFSET -0.667642 0.000000 0.042305
							}
						}
						JOINT bone03
						{
							OFFSET -2.859410 10.011330 9.974838
							CHANNELS 3 Xrotation Yrotation Zrotation
							End Site
							{
								OFFSET 0.042301 0.000000 0.667641
							}
						}
						JOINT bone05
						{
							OFFSET 4.144515 10.011345 9.531006
							CHANNELS 3 Xrotation Yrotation Zrotation
							End Site
							{
								OFFSET 0.042301 0.000000 0.667641
							}
						}
					}
					JOINT bip01_l_clavicle
					{
						OFFSET -6.817371 -1.737137 -4.124603
						CHANNELS 3 Xrotation Yrotation Zrotation
						JOINT bip01_l_upperarm
						{
							OFFSET -13.915021 0.119522 7.203735
							CHANNELS 3 Xrotation Yrotation Zrotation
							JOINT bip01_l_forearm
							{
								OFFSET 0.900768 -49.360191 -24.691143
								CHANNELS 3 Xrotation Yrotation Zrotation
								JOINT bip01_l_hand
								{
									OFFSET 5.453267 -54.192162 0.261513
									CHANNELS 3 Xrotation Yrotation Zrotation
									End Site
									{
										OFFSET -0.048247 0.019447 -0.666954
									}
								}
							}
						}
					}
					JOINT bip01_r_clavicle
					{
						OFFSET 6.291911 -1.668388 -4.989365
						CHANNELS 3 Xrotation Yrotation Zrotation
						JOINT bip01_r_upperarm
						{
							OFFSET 14.738678 0.269737 5.313599
							CHANNELS 3 Xrotation Yrotation Zrotation
							JOINT bip01_r_forearm
							{
								OFFSET -4.170362 -49.360199 -24.353104
								CHANNELS 3 Xrotation Yrotation Zrotation
								JOINT bip01_r_hand
								{
									OFFSET -5.370342 -54.192158 0.983074
									CHANNELS 3 Xrotation Yrotation Zrotation
									End Site
									{
										OFFSET 0.040714 -0.019448 0.667458
									}
								}
							}
						}
					}
				}
			}
		}
	}
	JOINT bip01_tail
	{
		OFFSET -1.140240 5.694984 -17.420544
		CHANNELS 3 Xrotation Yrotation Zrotation
		JOINT bip01_tail1
		{
			OFFSET -0.799711 -16.655739 -11.995483
			CHANNELS 3 Xrotation Yrotation Zrotation
			JOINT bip01_tail2
			{
				OFFSET -0.560408 -49.655807 -8.404999
				CHANNELS 3 Xrotation Yrotation Zrotation
				End Site
				{
					OFFSET -0.667499 0.000004 0.044495
				}
			}
		}
	}
}
MOTION
Frames: 5
Frame Time: 0.041667
-0.429273 116.674667 -44.600628 -26.491608 29.379601 16.626436 15.288050 -7.355582 -4.019918 -33.899533 3.956023 4.300805 7.229098 -15.645665 -24.362942 36.644112 -14.498079 12.465406 12.192456 19.980562 3.648009 -16.154302 -2.509500 0.365120 22.312645 -22.591411 6.177171 2.558007 -0.134225 -15.247788 -5.043342 -20.387925 0.914396 29.691935 -28.910893 -11.652005 52.202118 -19.492373 9.929134 -22.285966 13.561797 2.460651 -19.027365 15.850931 0.463897 -57.085628 60.588942 45.948547 -102.618832 -69.835481 -77.375955 3.979013 -0.127161 -0.420923 0.004076 0.003789 -0.004770 -0.002727 0.000245 0.003161 20.871950 -5.678960 15.380982 -40.735672 17.215135 -9.647938 -33.556542 -4.740482 4.232289 17.829437 9.625850 -0.895176 22.821692 -7.926476 -1.574136 -38.346642 19.278805 6.739327 -37.473164 3.772459 0.170245 12.765441 -11.489669 -2.004330 68.062657 -14.153404 29.956486 4.018254 10.996328 3.864650 -44.695986 -1.202992 5.806080 
-0.431086 111.222641 -48.908714 -19.734848 26.129621 12.100419 -0.364092 -10.140850 -5.511888 -19.892012 2.641973 2.247792 -0.106208 -4.626335 -19.165378 41.568501 -15.170612 12.233717 1.510845 17.024638 5.158587 0.752536 0.113284 -0.034415 5.231157 -18.602770 4.619294 8.737616 0.409346 -14.413432 -2.451650 -17.996111 3.153859 22.965681 -22.992807 -13.404672 36.547963 -13.004042 5.039019 -17.128088 5.585990 2.264658 -24.752483 10.956183 8.859887 -49.677301 73.613183 35.065174 -140.845768 -71.939459 -114.082915 2.986619 -0.120728 -0.354210 0.004076 0.003790 -0.004772 -0.002729 0.000245 0.003161 15.997070 1.863585 12.167574 -20.207308 -3.178528 -15.869692 -39.869812 -5.868217 4.685679 15.385250 14.273759 3.976640 18.103189 1.090256 -5.672467 -20.292034 3.565365 3.525895 -40.495112 4.057514 0.290519 15.175096 -10.550188 3.705573 71.553444 -11.899488 30.121920 5.431695 9.896913 1.525365 -50.393218 -1.470957 1.604881 
-0.432730 104.797050 -56.447853 -12.610999 22.463270 7.870879 -16.721445 -12.608255 -7.389145 -9.804795 1.401924 0.994376 -4.843474 5.274161 -13.469832 46.625672 -16.417828 11.959306 -9.799721 14.001996 5.381067 15.793400 2.256507 -1.017344 -9.861387 -14.383335 4.799071 14.911304 1.037680 -13.644227 0.104798 -15.522076 5.357241 16.361448 -16.659639 -14.412427 20.919288 -5.245695 1.964475 -11.549276 -2.905383 2.865122 -31.750636 4.527304 11.936140 9.878497 84.645353 -28.193435 -175.247696 -65.309436 -146.632536 0.610952 -0.117290 -0.193502 0.004078 0.003789 -0.004772 -0.002728 0.000245 0.003160 11.084832 10.184469 9.402648 -2.689247 -25.058246 -16.913864 -47.769346 -7.336435 5.073719 16.237043 18.094737 10.266011 13.591561 10.866051 -9.442959 -3.320813 -13.355701 3.937094 -49.330717 4.848684 0.726010 24.595197 -9.858278 10.256719 75.012204 -9.640282 30.212833 6.793163 8.737644 -0.780557 -56.090852 -1.320268 -2.607447 
-0.433991 99.539742 -61.832966 -6.355336 18.282731 4.405640 -30.472336 -15.548932 -8.269190 -3.711218 0.550878 0.348299 -8.637578 14.334892 -7.859414 51.682262 -17.676016 11.718237 -18.584342 11.437434 5.244087 26.160113 3.546144 -2.002356 -23.577518 -10.287222 5.518127 21.076647 1.746760 -12.946776 2.318084 -12.951655 7.241875 10.669083 -10.816651 -14.597653 7.500490 2.445940 1.316619 -6.752208 -10.248800 4.031489 -37.386772 0.983903 8.810499 81.255332 77.127145 -102.584551 -190.934482 -57.167044 -161.082498 -2.217678 -0.118588 -0.008137 0.004077 0.003788 -0.004772 -0.002727 0.000245 0.003160 12.250205 4.496622 14.038447 7.532057 -18.780341 -25.487247 -70.574781 -11.665278 5.024585 50.474575 15.657843 -0.550076 10.347607 19.734348 -12.456983 10.700775 -28.578977 7.058843 -58.887856 5.616804 1.327626 36.900534 -8.605137 15.407648 74.785210 -7.437701 29.004310 10.108133 7.847288 -2.615645 -55.734774 -1.236886 -5.415301 
-0.435088 95.256012 -65.064034 -2.095878 13.721403 1.928941 -38.268611 -19.738412 -7.858864 -0.741985 0.111898 0.066810 -14.293341 22.547809 -1.504324 56.620957 -18.384851 11.569058 -20.838354 9.797729 5.335235 32.891380 4.277752 -2.758717 -36.932834 -6.375712 5.846810 27.234211 2.524320 -12.329882 3.930688 -10.310304 8.546098 6.618741 -6.376817 -14.203559 -1.675326 8.594563 2.628321 -4.189790 -14.872045 4.955045 -37.427412 1.370736 2.631655 84.329791 70.079080 -107.010186 -197.729769 -54.953127 -168.291203 -4.591723 -0.129860 0.151987 0.004081 0.003789 -0.004769 -0.002719 0.000244 0.003163 17.284531 -3.147537 19.576654 6.829064 -8.496615 -39.472090 -86.737890 -14.513968 3.952814 83.295537 9.474843 -5.902286 9.297815 25.929316 -14.594564 21.174609 -39.861773 11.755197 -65.442932 6.080322 1.810281 46.214364 -7.125171 17.416777 68.368138 -5.019857 25.898672 17.992112 7.315046 -3.913977 -43.122946 -1.804107 -5.816952 
